<svg version="1.1" xmlns="http://www.w3.org/2000/svg" xmlns:xlink="http://www.w3.org/1999/xlink" x="0" y="0" viewBox="0 0 1059 297.915" xml:space="preserve" width="1059" height="297">
  <path fill="#041e42" d="M1027.565 97.805q2.215 1.242 3.472 3.382a9 9 0 0 1 1.267 4.659c0 1.686-.419 3.232-1.267 4.649-.838 1.407-2.005 2.524-3.472 3.342q-2.212 1.227-4.888 1.227c-1.736 0-3.342-.409-4.798-1.227a9.2 9.2 0 0 1-3.462-3.342c-.848-1.407-1.267-2.953-1.267-4.649 0-1.686.419-3.242 1.267-4.659.838-1.417 1.995-2.544 3.462-3.382 1.457-.828 3.063-1.247 4.798-1.247 1.786 0 3.412.409 4.888 1.247m-.988 14.525a6.9 6.9 0 0 0 2.684-2.654c.648-1.137.968-2.404.968-3.831 0-1.417-.319-2.704-.968-3.851a6.9 6.9 0 0 0-2.684-2.694c-1.147-.648-2.454-.978-3.911-.978-1.417 0-2.684.329-3.821.978a6.9 6.9 0 0 0-2.664 2.694c-.648 1.147-.968 2.424-.968 3.851s.319 2.694.968 3.831a6.9 6.9 0 0 0 2.664 2.654c1.137.638 2.404.958 3.821.958 1.466 0 2.763-.319 3.911-.958m-.469-6.834c-.459.469-1.047.808-1.776 1.028l2.793 4.16h-2.534l-2.304-3.831h-.908v3.831h-2.155v-9.976h2.943c3.073 0 4.609 1.008 4.609 3.033.01.708-.209 1.287-.668 1.756m-4.719-.229h1.137c1.367 0 2.045-.509 2.045-1.516 0-.509-.17-.868-.509-1.097s-.878-.339-1.606-.339h-1.057v2.953zM349.75 127.884c-.619.599-1.367.888-2.245.888H320.59c-.878 0-1.317.419-1.317 1.267v61.163c0 6.435 1.457 11.083 4.35 13.957 2.903 2.883 7.522 4.31 13.857 4.31h7.921c.878 0 1.626.299 2.245.888q.928.898.928 2.155v19.034c0 1.866-1.057 2.963-3.162 3.302l-13.727.249c-13.897 0-24.282-2.285-31.135-6.854s-10.385-13.198-10.555-25.888v-72.327c0-.848-.439-1.267-1.317-1.267h-15.044c-.878 0-1.626-.289-2.245-.888q-.928-.883-.928-2.155v-17.767q0-1.272.928-2.155c.619-.589 1.357-.888 2.245-.888h15.044c.878 0 1.317-.419 1.317-1.267V73.953q0-1.272.928-2.155c.619-.589 1.357-.888 2.245-.888h22.955c.878 0 1.626.299 2.245.888q.928.898.928 2.155v29.689c0 .848.439 1.267 1.317 1.267h26.915c.878 0 1.626.299 2.245.888q.928.898.928 2.155v17.767c-.03.858-.339 1.576-.948 2.165m121.04 41.5-.259 7.871c0 2.035-1.057 3.043-3.162 3.043H384.77c-.878 0-1.317.429-1.317 1.267.529 5.587 1.317 9.387 2.374 11.423 4.22 12.181 14.515 18.356 30.876 18.526 11.961 0 21.459-4.739 28.502-14.216.698-1.018 1.586-1.526 2.644-1.526.698 0 1.317.249 1.846.758l16.361 12.939c1.586 1.187 1.846 2.534.788 4.06-5.457 7.442-12.71 13.198-21.768 17.259s-19.134 6.095-30.218 6.095c-13.727 0-25.379-2.963-34.966-8.879s-16.58-14.216-20.98-24.87c-4.05-9.138-6.065-21.828-6.065-38.069 0-9.806 1.057-17.767 3.162-23.853 3.522-11.842 10.156-21.189 19.922-28.043s21.508-10.275 35.226-10.275c34.657 0 54.18 17.428 58.579 52.285.708 4.22 1.057 8.959 1.057 14.206m-75.868-36.423c-4.31 3.132-7.352 7.482-9.108 13.069-1.057 2.883-1.766 6.594-2.115 11.163-.359.848 0 1.267 1.057 1.267h53.572c.878 0 1.317-.419 1.317-1.267-.359-4.23-.878-7.442-1.586-9.647-1.586-6.095-4.709-10.824-9.368-14.216-4.659-3.382-10.515-5.078-17.548-5.078-6.504.01-11.911 1.576-16.221 4.709m186.283-17.897q12.797 12.181 12.799 33.25v83.24q0 1.272-.928 2.155c-.619.599-1.367.888-2.245.888h-24.282c-.878 0-1.626-.289-2.245-.888q-.928-.883-.928-2.155V154.4c0-7.781-2.285-14.086-6.864-18.905s-10.644-7.233-18.206-7.233-13.677 2.374-18.336 7.103c-4.659 4.739-6.993 11.004-6.993 18.785v77.404q0 1.272-.928 2.155c-.619.599-1.367.888-2.245.888h-24.282c-.878 0-1.626-.289-2.245-.888q-.928-.883-.928-2.155V107.961q0-1.272.928-2.155c.619-.589 1.357-.888 2.245-.888h24.282c.878 0 1.626.299 2.245.888q.928.898.928 2.155v8.121c0 .509.17.848.529 1.018.349.17.619 0 .788-.509 7.213-9.138 18.117-13.707 32.722-13.707 14.256 0 25.648 4.06 34.188 12.181m113.149-6.594c8.44 3.721 14.954 8.839 19.523 15.353s6.864 13.917 6.864 22.207v85.525q0 1.272-.928 2.155c-.619.599-1.367.888-2.245.888h-24.282c-.878 0-1.626-.289-2.245-.888q-.928-.883-.928-2.155v-8.121c0-.509-.18-.798-.529-.888-.359-.08-.708.04-1.057.379q-12.929 13.707-37.47 13.707c-13.198 0-24.062-3.212-32.592-9.647-8.54-6.425-12.799-15.992-12.799-28.681 0-13.198 4.789-23.474 14.385-30.836 9.587-7.362 23.095-11.044 40.503-11.044h28.232c.878 0 1.317-.419 1.317-1.267v-6.095c0-6.594-2.025-11.712-6.065-15.353-4.05-3.641-10.116-5.457-18.206-5.457-6.684 0-12.101 1.137-16.231 3.422q-6.21 3.427-7.781 9.517c-.529 2.035-1.766 2.883-3.691 2.534l-25.6-3.043c-.878-.17-1.626-.459-2.245-.888q-.928-.628-.658-1.646c1.407-10.315 7.163-18.785 17.289-25.379 10.116-6.594 22.825-9.896 38.129-9.896 11.103.01 20.87 1.876 29.31 5.597m-14.455 98.214c6.155-4.399 9.238-9.986 9.238-16.75v-11.931c0-.848-.439-1.267-1.317-1.267h-22.167c-9.328 0-16.67 1.696-22.037 5.078s-8.051 8.21-8.051 14.465c0 5.417 2.065 9.607 6.205 12.56 4.13 2.963 9.457 4.439 15.962 4.439 8.619.01 16.012-2.185 22.167-6.594m170.95-37.301c0 12.011-1.676 22.586-5.018 31.724-3.871 11.163-10.116 19.882-18.735 26.137-8.619 6.265-19.174 9.387-31.664 9.387-12.32 0-22.426-4.479-30.347-13.448-.359-.509-.708-.678-1.057-.509-.359.17-.529.509-.529 1.018v7.871q0 1.272-.928 2.155c-.619.599-1.367.888-2.245.888h-24.282c-.878 0-1.626-.289-2.245-.888q-.928-.883-.928-2.155V59.996q0-1.272.928-2.155c.619-.589 1.357-.888 2.245-.888h24.282c.878 0 1.626.299 2.245.888q.928.898.928 2.155v55.068c0 .509.17.848.529 1.018.349.17.698.09 1.057-.249 7.562-8.629 17.588-12.939 30.088-12.939 13.019 0 23.793 3.132 32.322 9.387 8.53 6.265 14.824 14.974 18.865 26.137 2.993 9.477 4.489 19.793 4.489 30.966m-31.405.499c0-13.198-2.644-23.514-7.921-30.966-4.749-7.103-11.792-10.654-21.109-10.654-8.619 0-15.223 3.721-19.793 11.163-4.399 6.943-6.594 16.999-6.594 30.198 0 13.029 2.025 22.845 6.065 29.439 4.569 8.121 11.433 12.181 20.581 12.181q7.377 0 13.198-3.172c3.871-2.115 6.943-5.118 9.238-9.008 4.22-7.093 6.335-16.82 6.335-29.18m44.044 64.026q-.928-.883-.928-2.155V60.196q0-1.272.928-2.155c.619-.589 1.357-.888 2.245-.888h24.282c.878 0 1.626.299 2.245.888q.928.898.928 2.155v171.559q0 1.272-.928 2.155c-.619.599-1.367.888-2.245.888h-24.293c-.878 0-1.626-.289-2.235-.888m159.477-64.725-.259 7.871c0 2.035-1.057 3.043-3.162 3.043h-82.602c-.878 0-1.317.429-1.317 1.267.529 5.587 1.317 9.387 2.374 11.423 4.22 12.181 14.515 18.356 30.876 18.526 11.961 0 21.459-4.739 28.502-14.216.698-1.018 1.586-1.526 2.634-1.526.698 0 1.317.249 1.846.758l16.361 12.939c1.586 1.187 1.846 2.534.788 4.06-5.457 7.442-12.71 13.198-21.768 17.259s-19.134 6.095-30.218 6.095c-13.717 0-25.379-2.963-34.966-8.879s-16.58-14.216-20.98-24.87c-4.05-9.138-6.065-21.828-6.065-38.069 0-9.806 1.057-17.767 3.162-23.853 3.522-11.842 10.156-21.189 19.922-28.043s21.508-10.275 35.226-10.275c34.657 0 54.18 17.428 58.579 52.285.708 4.23 1.067 8.968 1.067 14.206m-75.868-36.423c-4.31 3.132-7.352 7.482-9.108 13.069-1.057 2.883-1.756 6.594-2.115 11.163-.359.848 0 1.267 1.057 1.267h53.572c.878 0 1.317-.419 1.317-1.267-.359-4.23-.878-7.442-1.586-9.647-1.586-6.095-4.709-10.824-9.368-14.216-4.659-3.382-10.515-5.078-17.548-5.078-6.504.02-11.911 1.586-16.221 4.709m-692.509 28.44L224.072 70.58a19.3 19.3 0 0 0-14.574-12.759l-95.252-18.585c-6.644-1.297-13.567 1.038-18.067 6.085l-64.605 72.406a19.31 19.31 0 0 0-3.881 18.974l30.517 90.623a19.28 19.28 0 0 0 14.575 12.759l95.252 18.585a19 19 0 0 0 3.651.349c5.437 0 10.734-2.314 14.415-6.435l64.605-72.406c4.599-5.148 6.085-12.42 3.881-18.974m-36.871-88.476 20.072 59.597-42.658-67.299a17 17 0 0 0-3.312-3.821l16.411 3.202a12.58 12.58 0 0 1 9.487 8.32m-31.445 157.173-37.181 1.885 60.146-34.816c.09-.05.18-.11.269-.17l-14.475 27.504a10.52 10.52 0 0 1-8.759 5.597m-93.446-.589-21.01-33.141c.399.289.808.559 1.237.808l60.625 35.097c.279.16.569.319.858.459l-32.312 1.636c-3.781.18-7.382-1.676-9.397-4.858M96.01 68.017l37.181-1.885-60.136 34.816c-.09.05-.18.11-.269.17l14.475-27.504a10.52 10.52 0 0 1 8.749-5.597m93.456.599 21.009 33.14a15 15 0 0 0-1.237-.808l-60.625-35.086c-.279-.16-.569-.319-.858-.459l32.312-1.636c3.761-.219 7.372 1.656 9.397 4.848m20.501 115.463a8.24 8.24 0 0 1-4.09 7.103l-60.625 35.086a8.23 8.23 0 0 1-8.22 0l-60.613-35.096a8.23 8.23 0 0 1-4.09-7.103v-70.232a8.24 8.24 0 0 1 4.09-7.103l60.625-35.086a8.14 8.14 0 0 1 4.11-1.097c1.417 0 2.843.369 4.11 1.097l60.614 35.097a8.22 8.22 0 0 1 4.09 7.103zm-144.094 2.704-17.608-27.783a10.52 10.52 0 0 1-.419-10.505l17.769-33.769v69.344c0 .928.09 1.826.259 2.713m150.549-75.649 17.608 27.783a10.52 10.52 0 0 1 .419 10.505l-17.777 33.769v-69.344c0-.918-.09-1.826-.249-2.713M101.198 49.79a12.63 12.63 0 0 1 9.397-4.2c.788 0 1.586.08 2.384.229l59.467 11.602-76.766 3.891c-2.125.11-4.17.619-6.065 1.457zm-64.615 72.406L79.31 74.322l-37.4 71.06a17.3 17.3 0 0 0-1.925 6.804l-5.926-17.608a12.59 12.59 0 0 1 2.524-12.38m27.983 102.993-20.073-59.598 42.658 67.299a17.2 17.2 0 0 0 3.312 3.821l-16.401-3.202c-4.419-.858-8.051-4.05-9.497-8.32m116.531 22.945a12.61 12.61 0 0 1-11.782 3.97l-59.467-11.602 76.766-3.891c2.125-.11 4.17-.619 6.065-1.457zm64.605-72.416-42.718 47.885 37.4-71.06a17.2 17.2 0 0 0 1.925-6.804l5.926 17.608a12.58 12.58 0 0 1-2.534 12.37"/>
</svg>
